<?xml version="1.0" encoding="utf-8"?>
<!-- Generator: Adobe Illustrator 16.0.0, SVG Export Plug-In . SVG Version: 6.00 Build 0)  -->
<!DOCTYPE svg PUBLIC "-//W3C//DTD SVG 1.1//EN" "http://www.w3.org/Graphics/SVG/1.1/DTD/svg11.dtd">
<svg version="1.1" id="Layer_1" xmlns="http://www.w3.org/2000/svg" xmlns:xlink="http://www.w3.org/1999/xlink" x="0px" y="0px"
	 width="50px" height="50px" viewBox="0 0 50 50" enable-background="new 0 0 50 50" xml:space="preserve">
<g>
	<path fill="#233B73" d="M39.621,9.752c0.437-0.705,0.67-1.52,0.67-2.367c0-2.489-2.024-4.515-4.514-4.515
		c-2.488,0-4.515,2.025-4.515,4.515c0,0.855,0.238,1.676,0.681,2.385c-2.055,0.819-3.175,2.326-3.175,4.317v2.836
		c0,0.358,0.292,0.649,0.65,0.649s0.65-0.291,0.65-0.649v-2.836c0-1.672,1.051-2.805,3.124-3.364
		c0.224-0.061,0.398-0.235,0.459-0.458c0.061-0.222-0.002-0.461-0.165-0.625c-0.596-0.604-0.925-1.406-0.925-2.255
		c0-1.773,1.441-3.215,3.215-3.215c1.772,0,3.215,1.442,3.215,3.215c0,0.843-0.325,1.641-0.915,2.245
		c-0.162,0.166-0.224,0.404-0.162,0.627c0.063,0.222,0.236,0.396,0.461,0.455c2.101,0.555,3.167,1.69,3.167,3.375v5.146
		c0,0.496-0.403,0.899-0.9,0.899c-0.495,0-0.899-0.403-0.899-0.899v-4.647c0-0.358-0.29-0.65-0.649-0.65
		c-0.358,0-0.649,0.292-0.649,0.65v13.779c0,0.358,0.291,0.65,0.649,0.65c0.359,0,0.649-0.292,0.649-0.65v-7.126
		c0.275,0.124,0.579,0.193,0.899,0.193c0.009,0,0.019,0,0.028,0v13.417c0,0.359,0.29,0.649,0.649,0.649
		c0.358,0,0.649-0.29,0.649-0.649V20.985c0.529-0.402,0.872-1.038,0.872-1.752v-5.146C42.842,12.081,41.707,10.567,39.621,9.752
		L39.621,9.752z"/>
	<path fill="#233B73" d="M35.806,34.802c0.417,0.429,1,0.695,1.645,0.695c1.265,0,2.293-1.028,2.293-2.293v-2.241
		c0-0.358-0.29-0.648-0.649-0.648c-0.358,0-0.649,0.29-0.649,0.648v2.241c0,0.547-0.446,0.995-0.994,0.995
		c-0.55,0-0.995-0.448-0.995-0.995v-8.383c0-0.358-0.291-0.649-0.649-0.649c-0.359,0-0.65,0.291-0.65,0.649v8.383
		c0,0.547-0.446,0.995-0.994,0.995c-0.549,0-0.995-0.448-0.995-0.995V14.585c0-0.358-0.291-0.649-0.649-0.649
		s-0.649,0.291-0.649,0.649v7.766c0,0.496-0.404,0.899-0.899,0.899c-0.497,0-0.898-0.403-0.898-0.899v-2.829
		c0-0.358-0.292-0.649-0.65-0.649s-0.65,0.291-0.65,0.649v2.829c0,1.212,0.987,2.199,2.199,2.199c0.32,0,0.624-0.069,0.899-0.192
		v8.847c0,1.265,1.028,2.293,2.294,2.293C34.805,35.497,35.388,35.23,35.806,34.802L35.806,34.802z"/>
	<path fill="#233B73" d="M20.017,27.845v-4.657c0-1.821-1.016-3.2-2.885-3.954c0.375-0.633,0.577-1.357,0.577-2.112
		c0-2.286-1.86-4.146-4.146-4.146c-2.287,0-4.147,1.86-4.147,4.146c0,0.761,0.205,1.492,0.587,2.129
		c-1.842,0.757-2.844,2.13-2.844,3.937v0.849c0,0.36,0.291,0.65,0.649,0.65s0.65-0.29,0.65-0.65v-0.849
		c0-1.482,0.936-2.487,2.783-2.985c0.223-0.06,0.397-0.233,0.458-0.457c0.061-0.223-0.002-0.462-0.164-0.625
		c-0.529-0.537-0.819-1.246-0.819-1.999c0-1.57,1.277-2.847,2.848-2.847c1.57,0,2.848,1.277,2.848,2.847
		c0,0.748-0.289,1.454-0.811,1.989c-0.162,0.166-0.224,0.404-0.162,0.627c0.062,0.222,0.237,0.396,0.46,0.455
		c1.872,0.495,2.821,1.502,2.821,2.995v4.657c0,0.415-0.338,0.752-0.752,0.752c-0.415,0-0.753-0.337-0.753-0.752v-4.206
		c0-0.36-0.291-0.65-0.649-0.65c-0.358,0-0.649,0.29-0.649,0.65v1.251h-4.653v-1.251c0-0.36-0.291-0.65-0.65-0.65
		c-0.358,0-0.649,0.29-0.649,0.65v4.206c0,0.415-0.338,0.752-0.752,0.752s-0.752-0.337-0.752-0.752v-1.208
		c0-0.359-0.291-0.65-0.65-0.65s-0.649,0.291-0.649,0.65v1.208c0,1.13,0.92,2.051,2.051,2.051c0.266,0,0.519-0.051,0.752-0.142
		v3.605c0,1.18,0.958,2.138,2.138,2.138c0.578,0,1.103-0.23,1.488-0.604c0.385,0.373,0.91,0.604,1.488,0.604
		c1.179,0,2.137-0.958,2.137-2.138v-3.605c0.233,0.091,0.487,0.142,0.753,0.142C19.096,29.896,20.017,28.975,20.017,27.845
		L20.017,27.845z M15.914,26.189v1.01c-1.021,1.052-1.963,1.526-2.326,1.526c-0.364,0-1.306-0.475-2.327-1.526v-1.01H15.914z
		 M12.1,34.199c-0.463,0-0.839-0.376-0.839-0.84v-4.41c0.494,0.394,1.087,0.784,1.677,0.967v3.443
		C12.938,33.823,12.562,34.199,12.1,34.199L12.1,34.199z M15.075,34.199c-0.462,0-0.838-0.376-0.838-0.84v-3.443
		c0.59-0.183,1.184-0.573,1.677-0.967v4.41C15.914,33.823,15.538,34.199,15.075,34.199L15.075,34.199z"/>
	<path fill="#233B73" d="M24.521,33.801c-3.675,0-6.665,2.99-6.665,6.665s2.99,6.663,6.665,6.663c3.675,0,6.664-2.988,6.664-6.663
		S28.196,33.801,24.521,33.801L24.521,33.801z M24.521,45.831c-2.958,0-5.365-2.407-5.365-5.365c0-2.96,2.407-5.365,5.365-5.365
		c2.958,0,5.365,2.405,5.365,5.365C29.886,43.424,27.479,45.831,24.521,45.831L24.521,45.831z"/>
	<path fill="#233B73" d="M24.521,37.235c-0.359,0-0.65,0.291-0.65,0.649v2.263L22.7,41.062c-0.283,0.222-0.333,0.63-0.113,0.912
		c0.221,0.284,0.631,0.333,0.912,0.112l1.421-1.109c0.158-0.121,0.25-0.311,0.25-0.511v-2.581
		C25.17,37.526,24.879,37.235,24.521,37.235L24.521,37.235z"/>
	<path fill="#233B73" d="M15.365,39.815H9.866c-0.359,0-0.649,0.29-0.649,0.65c0,0.358,0.291,0.648,0.649,0.648h5.499
		c0.359,0,0.649-0.29,0.649-0.648C16.014,40.105,15.724,39.815,15.365,39.815z"/>
	<path fill="#233B73" d="M36.871,37.412c-0.263-0.245-0.674-0.231-0.919,0.029c-0.246,0.262-0.232,0.672,0.03,0.917l1.552,1.457
		h-3.858c-0.358,0-0.648,0.29-0.648,0.65c0,0.358,0.29,0.648,0.648,0.648h3.858l-1.552,1.457c-0.263,0.245-0.276,0.657-0.03,0.918
		c0.246,0.262,0.657,0.273,0.919,0.029l2.749-2.579c0.271-0.243,0.271-0.703,0-0.948L36.871,37.412z"/>
</g>
</svg>
