<?xml version="1.0" encoding="utf-8"?>
<!-- Generator: Adobe Illustrator 16.0.0, SVG Export Plug-In . SVG Version: 6.00 Build 0)  -->
<!DOCTYPE svg PUBLIC "-//W3C//DTD SVG 1.1//EN" "http://www.w3.org/Graphics/SVG/1.1/DTD/svg11.dtd">
<svg version="1.1" id="Layer_1" xmlns="http://www.w3.org/2000/svg" xmlns:xlink="http://www.w3.org/1999/xlink" x="0px" y="0px"
	 width="50px" height="50px" viewBox="0 0 50 50" enable-background="new 0 0 50 50" xml:space="preserve">
<g>
	<path fill="#243A73" d="M17.197,23.32h2.316c0.616,0,1.117-0.501,1.117-1.117v-1.424h1.422c0.617,0,1.118-0.5,1.118-1.117v-2.316
		c0-0.616-0.501-1.117-1.118-1.117H20.63v-1.423c0-0.615-0.501-1.117-1.117-1.117h-2.316c-0.616,0-1.117,0.501-1.117,1.117v1.423
		h-1.423c-0.616,0-1.117,0.501-1.117,1.117v2.316c0,0.617,0.501,1.117,1.117,1.117h1.423v1.424
		C16.08,22.819,16.582,23.32,17.197,23.32z M14.959,19.36v-1.71h1.424c0.615,0,1.117-0.501,1.117-1.118v-1.423h1.71v1.423
		c0,0.617,0.5,1.118,1.117,1.118h1.423v1.71h-1.423c-0.617,0-1.117,0.501-1.117,1.117v1.424H17.5v-1.424
		c0-0.616-0.501-1.117-1.117-1.117H14.959z"/>
	<path fill="#243A73" d="M18.354,26.195c1.302,0,2.591-0.332,3.725-0.96c0.343-0.19,0.467-0.622,0.276-0.965
		c-0.189-0.342-0.622-0.467-0.964-0.276c-0.925,0.513-1.976,0.784-3.037,0.784c-3.458,0-6.271-2.813-6.271-6.271
		c0-3.459,2.814-6.272,6.271-6.272c3.459,0,6.272,2.813,6.272,6.271c0,1.395-0.448,2.715-1.298,3.819
		c-0.239,0.311-0.181,0.757,0.13,0.996c0.311,0.239,0.757,0.181,0.996-0.13c1.042-1.354,1.591-2.975,1.591-4.685
		c0-4.241-3.45-7.691-7.691-7.691c-4.24,0-7.69,3.45-7.69,7.691C10.664,22.746,14.114,26.195,18.354,26.195z"/>
	<path fill="#243A73" d="M31.947,19.681h-3.509c-0.392,0-0.709,0.318-0.709,0.709c0,0.394,0.317,0.711,0.709,0.711h3.509
		c0.391,0,0.709-0.318,0.709-0.711C32.656,19.999,32.338,19.681,31.947,19.681z"/>
	<path fill="#243A73" d="M31.947,22.957h-3.509c-0.392,0-0.709,0.318-0.709,0.709c0,0.393,0.317,0.711,0.709,0.711h3.509
		c0.391,0,0.709-0.318,0.709-0.711C32.656,23.274,32.338,22.957,31.947,22.957z"/>
	<path fill="#243A73" d="M31.947,26.23h-7.293c-0.393,0-0.71,0.318-0.71,0.711c0,0.391,0.317,0.709,0.71,0.709h7.293
		c0.391,0,0.709-0.318,0.709-0.709C32.656,26.549,32.338,26.23,31.947,26.23z"/>
	<path fill="#243A73" d="M31.947,29.506h-3.509c-0.392,0-0.709,0.318-0.709,0.711s0.317,0.709,0.709,0.709h3.509
		c0.391,0,0.709-0.316,0.709-0.709S32.338,29.506,31.947,29.506z"/>
	<path fill="#243A73" d="M18.219,30.217c0,0.393,0.318,0.709,0.71,0.709h6.348c0.391,0,0.709-0.316,0.709-0.709
		s-0.318-0.711-0.709-0.711h-6.348C18.537,29.506,18.219,29.824,18.219,30.217L18.219,30.217z"/>
	<path fill="#243A73" d="M11.374,30.926h4.392c0.393,0,0.709-0.316,0.709-0.709s-0.317-0.711-0.709-0.711h-4.392
		c-0.392,0-0.709,0.318-0.709,0.711S10.981,30.926,11.374,30.926z"/>
	<path fill="#243A73" d="M31.947,32.781h-8.24c-0.393,0-0.711,0.318-0.711,0.711c0,0.391,0.318,0.709,0.711,0.709h8.24
		c0.391,0,0.709-0.318,0.709-0.709C32.656,33.1,32.338,32.781,31.947,32.781z"/>
	<path fill="#243A73" d="M11.374,34.201h9.125c0.392,0,0.709-0.318,0.709-0.709c0-0.393-0.318-0.711-0.709-0.711h-9.125
		c-0.392,0-0.709,0.318-0.709,0.711C10.664,33.883,10.981,34.201,11.374,34.201z"/>
	<path fill="#243A73" d="M31.947,36.057h-8.24c-0.393,0-0.711,0.318-0.711,0.709c0,0.393,0.318,0.711,0.711,0.711h8.24
		c0.391,0,0.709-0.318,0.709-0.711C32.656,36.375,32.338,36.057,31.947,36.057z"/>
	<path fill="#243A73" d="M11.374,37.477h9.125c0.392,0,0.709-0.318,0.709-0.711c0-0.391-0.318-0.709-0.709-0.709h-9.125
		c-0.392,0-0.709,0.318-0.709,0.709C10.664,37.158,10.981,37.477,11.374,37.477z"/>
	<path fill="#243A73" d="M31.947,39.332H11.374c-0.392,0-0.709,0.318-0.709,0.711c0,0.391,0.317,0.707,0.709,0.707h20.574
		c0.391,0,0.709-0.316,0.709-0.707C32.656,39.65,32.338,39.332,31.947,39.332z"/>
	<path fill="#243A73" d="M24.706,2.566H18.83c-0.392,0-0.71,0.317-0.71,0.709c0,0.392,0.318,0.709,0.71,0.709h5.875
		c0.393,0,0.711-0.317,0.711-0.709C25.417,2.883,25.099,2.566,24.706,2.566L24.706,2.566z"/>
	<path fill="#243A73" d="M47.741,11.869h-8.037V5.173c0-1.544-1.257-2.801-2.802-2.801h-7.188V1.607C29.715,0.722,28.995,0,28.11,0
		H15.426C14.54,0,13.82,0.722,13.82,1.607v0.765H6.634c-1.545,0-2.802,1.257-2.802,2.801v2.418c0,0.392,0.318,0.709,0.709,0.709
		c0.393,0,0.71-0.318,0.71-0.709V5.173c0-0.761,0.62-1.381,1.382-1.381h7.187v1.152c0,0.886,0.72,1.606,1.606,1.606H28.11
		c0.885,0,1.606-0.721,1.606-1.606V3.792h7.187c0.761,0,1.382,0.62,1.382,1.381v6.695h-2.366V9.502c0-0.929-0.756-1.686-1.685-1.686
		H9.302c-0.929,0-1.685,0.755-1.685,1.686v33.484c0,0.928,0.756,1.686,1.685,1.686h24.933c0.384,0,0.744-0.133,1.028-0.354
		c0.736,0.91,1.721,1.617,2.85,2.008c-0.239,0.428-0.696,0.711-1.21,0.711H6.634c-0.763,0-1.382-0.621-1.382-1.381V10.429
		c0-0.392-0.318-0.709-0.71-0.709c-0.392,0-0.709,0.317-0.709,0.709v35.225c0,1.545,1.257,2.803,2.802,2.803h30.269
		c1.185,0,2.221-0.742,2.624-1.816c0.212,0.02,0.428,0.031,0.645,0.031c3.005,0,5.604-2.139,6.181-5.084
		c0.074-0.385-0.177-0.758-0.562-0.832c-0.385-0.076-0.758,0.176-0.832,0.561c-0.445,2.281-2.46,3.938-4.787,3.938
		c-2.69,0-4.879-2.189-4.879-4.881v-6.516h9.758v4.65c0,0.391,0.317,0.709,0.709,0.709s0.71-0.318,0.71-0.709v-19.59h1.272
		c1.121,0,2.034-0.912,2.034-2.035v-2.979C49.775,12.781,48.862,11.869,47.741,11.869L47.741,11.869z M28.296,4.944
		c0,0.104-0.084,0.187-0.186,0.187H15.426c-0.103,0-0.187-0.083-0.187-0.187V1.607c0-0.104,0.084-0.187,0.187-0.187H28.11
		c0.102,0,0.186,0.083,0.186,0.187V4.944z M34.234,43.252H9.302c-0.146,0-0.265-0.119-0.265-0.266V9.502
		c0-0.146,0.119-0.266,0.265-0.266h24.933c0.146,0,0.266,0.12,0.266,0.266v2.367h-1.899c-0.85,0-1.579,0.522-1.882,1.262h-2.28
		c-0.392,0-0.709,0.318-0.709,0.709c0,0.394,0.317,0.711,0.709,0.711h2.128v1.854h-2.128c-0.392,0-0.709,0.318-0.709,0.709
		c0,0.393,0.317,0.711,0.709,0.711h2.36c0.341,0.648,1.021,1.091,1.802,1.091h1.272v21.456c0,0.969,0.219,1.885,0.61,2.705
		C34.445,43.18,34.348,43.252,34.234,43.252L34.234,43.252z M45.05,32.438h-9.758v-7.104h9.758V32.438z M45.05,23.915h-9.758v-4.997
		h9.758V23.915z M48.356,16.883c0,0.34-0.275,0.615-0.615,0.615H32.601c-0.339,0-0.615-0.275-0.615-0.615v-2.979
		c0-0.34,0.276-0.616,0.615-0.616h15.141c0.34,0,0.615,0.275,0.615,0.616V16.883z"/>
	<path fill="#243A73" d="M35.101,14.217c-0.393,0-0.711,0.318-0.711,0.709v0.932c0,0.392,0.318,0.71,0.711,0.71
		c0.391,0,0.708-0.318,0.708-0.71v-0.932C35.809,14.535,35.491,14.217,35.101,14.217z"/>
	<path fill="#243A73" d="M38.48,14.217c-0.393,0-0.71,0.318-0.71,0.709v0.932c0,0.392,0.317,0.71,0.71,0.71
		c0.394,0,0.71-0.318,0.71-0.71v-0.932C39.19,14.535,38.874,14.217,38.48,14.217z"/>
	<path fill="#243A73" d="M41.861,14.217c-0.392,0-0.71,0.318-0.71,0.709v0.932c0,0.392,0.318,0.71,0.71,0.71
		c0.393,0,0.709-0.318,0.709-0.71v-0.932C42.57,14.535,42.254,14.217,41.861,14.217z"/>
	<path fill="#243A73" d="M45.242,14.217c-0.392,0-0.71,0.318-0.71,0.709v0.932c0,0.392,0.318,0.71,0.71,0.71
		c0.394,0,0.711-0.318,0.711-0.71v-0.932C45.953,14.535,45.635,14.217,45.242,14.217z"/>
	<path fill="#243A73" d="M38.467,29.596h0.995v0.994c0,0.395,0.317,0.711,0.709,0.711c0.393,0,0.71-0.316,0.71-0.711v-0.994h0.996
		c0.391,0,0.708-0.316,0.708-0.709c0-0.395-0.317-0.709-0.708-0.709h-0.996v-0.996c0-0.393-0.317-0.711-0.71-0.711
		c-0.392,0-0.709,0.318-0.709,0.711v0.996h-0.995c-0.393,0-0.71,0.314-0.71,0.709C37.757,29.279,38.074,29.596,38.467,29.596z"/>
</g>
</svg>
