<?xml version="1.0" encoding="utf-8"?>
<!-- Generator: Adobe Illustrator 16.0.0, SVG Export Plug-In . SVG Version: 6.00 Build 0)  -->
<!DOCTYPE svg PUBLIC "-//W3C//DTD SVG 1.1//EN" "http://www.w3.org/Graphics/SVG/1.1/DTD/svg11.dtd">
<svg version="1.1" id="Layer_1" xmlns="http://www.w3.org/2000/svg" xmlns:xlink="http://www.w3.org/1999/xlink" x="0px" y="0px"
	 width="50px" height="50px" viewBox="0 0 50 50" enable-background="new 0 0 50 50" xml:space="preserve">
<g>
	<g>
		
			<rect x="14.871" y="9.023" transform="matrix(0.4278 -0.9039 0.9039 0.4278 0.0624 19.6791)" fill="#B9B8B9" width="1.406" height="1.534"/>
	</g>
</g>
<g>
	<g>
		<path fill="#B9B8B9" d="M13.944,11.439L5.473,29.32c-0.723,1.527-1.104,3.227-1.104,4.914h1.534c0-1.461,0.332-2.937,0.958-4.258
			l8.471-17.881L13.944,11.439z"/>
	</g>
</g>
<g>
	<g>
		<path fill="#B9B8B9" d="M32.75,16.562c-2.945,0-5.703,0.81-8.083,2.197l-8.1-17.1C16.441,1.391,16.17,1.22,15.875,1.22
			c-0.296,0-0.566,0.171-0.693,0.439L2.7,28.008c-0.916,1.934-1.4,4.088-1.4,6.227c0,8.021,6.525,14.545,14.604,14.545
			c2.948,0,5.78-0.879,8.203-2.536c2.5,1.598,5.461,2.536,8.643,2.536c8.884,0,16.109-7.227,16.109-16.108
			S41.634,16.562,32.75,16.562z M15.845,47.246c-7.175,0-13.011-5.836-13.011-13.012c0-1.914,0.433-3.84,1.252-5.57L15.875,3.779
			l7.496,15.823c-4.067,2.926-6.729,7.687-6.729,13.068c0,5.109,2.398,9.662,6.119,12.615
			C20.704,46.564,18.345,47.246,15.845,47.246z M32.75,47.246c-8.037,0-14.574-6.539-14.574-14.576
			c0-8.036,6.538-14.574,14.574-14.574c8.037,0,14.575,6.538,14.575,14.574C47.325,40.707,40.787,47.246,32.75,47.246z"/>
	</g>
</g>
<g>
	<g>
		<path fill="#B9B8B9" d="M32.75,20.397c-3.807,0-6.902,2.409-6.902,5.371c0,2.959,3.096,5.369,6.902,5.369s6.904-2.41,6.904-5.369
			C39.654,22.807,36.557,20.397,32.75,20.397z M32.75,29.604c-2.961,0-5.368-1.723-5.368-3.836c0-2.115,2.407-3.834,5.368-3.834
			c2.962,0,5.369,1.721,5.369,3.834C38.119,27.881,35.712,29.604,32.75,29.604z"/>
	</g>
</g>
<g>
	<g>
		<path fill="#B9B8B9" d="M34.805,23.899c-1.304,0.442-2.805,0.442-4.109,0l-0.493,1.454c0.813,0.275,1.671,0.415,2.549,0.415
			c0.879,0,1.737-0.14,2.548-0.415L34.805,23.899z"/>
	</g>
</g>
<g>
	<g>
		<path fill="#B9B8B9" d="M40.059,34.527c-0.363,0.584-0.826,1.106-1.377,1.561c-0.551,0.451-1.156,0.803-1.801,1.043l0.54,1.438
			c0.802-0.301,1.552-0.735,2.233-1.295c0.681-0.559,1.256-1.211,1.707-1.938L40.059,34.527z"/>
	</g>
</g>
<g>
	<g>
		<path fill="#B9B8B9" d="M44.834,32.842c-0.74-0.953-1.861-1.551-3.154-1.678c-1.793-0.184-3.738,0.516-5.34,1.904
			c-2.824,2.447-3.66,6.322-1.865,8.637c0.741,0.955,1.861,1.551,3.155,1.678c0.185,0.02,0.369,0.027,0.556,0.027
			c1.631,0,3.347-0.688,4.783-1.934C45.793,39.029,46.63,35.156,44.834,32.842z M41.965,40.318c-1.267,1.098-2.831,1.67-4.184,1.539
			c-0.883-0.088-1.606-0.465-2.094-1.092c-1.305-1.683-0.562-4.613,1.656-6.535c1.146-0.994,2.534-1.562,3.79-1.562
			c0.134,0,0.265,0.008,0.394,0.021c0.884,0.088,1.606,0.465,2.093,1.092C44.927,35.465,44.184,38.396,41.965,40.318z"/>
	</g>
</g>
<g>
	<g>
		<path fill="#B9B8B9" d="M26.818,36.088c-0.551-0.453-1.014-0.977-1.376-1.561l-1.302,0.809c0.452,0.727,1.026,1.379,1.708,1.938
			c0.68,0.56,1.432,0.994,2.232,1.295l0.539-1.438C27.977,36.891,27.37,36.539,26.818,36.088z"/>
	</g>
</g>
<g>
	<g>
		<path fill="#B9B8B9" d="M29.161,33.07c-1.603-1.389-3.55-2.09-5.339-1.906c-1.294,0.127-2.414,0.725-3.155,1.678
			c-1.797,2.314-0.959,6.189,1.865,8.637c1.438,1.246,3.153,1.935,4.782,1.935c0.188,0,0.373-0.009,0.557-0.027
			c1.294-0.127,2.414-0.723,3.154-1.678C32.823,39.391,31.984,35.518,29.161,33.07z M29.814,40.766
			c-0.486,0.625-1.211,1.004-2.094,1.092c-1.357,0.132-2.919-0.44-4.185-1.539c-2.22-1.922-2.962-4.854-1.657-6.536
			c0.486-0.628,1.21-1.005,2.093-1.093c0.129-0.012,0.26-0.02,0.393-0.02c1.256,0,2.646,0.566,3.791,1.561
			C30.376,36.152,31.119,39.084,29.814,40.766z"/>
	</g>
</g>
</svg>
