<?xml version="1.0" encoding="utf-8"?>
<!-- Generator: Adobe Illustrator 16.0.0, SVG Export Plug-In . SVG Version: 6.00 Build 0)  -->
<!DOCTYPE svg PUBLIC "-//W3C//DTD SVG 1.1//EN" "http://www.w3.org/Graphics/SVG/1.1/DTD/svg11.dtd">
<svg version="1.1" id="Layer_1" xmlns="http://www.w3.org/2000/svg" xmlns:xlink="http://www.w3.org/1999/xlink" x="0px" y="0px"
	 width="50px" height="50px" viewBox="0 0 50 50" enable-background="new 0 0 50 50" xml:space="preserve">
<g>
	<path fill="#233B73" d="M44.972,2.888H32.133c-1.18,0-2.141,0.96-2.141,2.14v7.846H5.028c-1.18,0-2.14,0.96-2.14,2.141v29.958
		c0,1.181,0.96,2.141,2.14,2.141h34.238c1.181,0,2.141-0.96,2.141-2.141V28.566h1.426v-4.337c2.416-0.349,4.28-2.426,4.28-4.936
		V5.028C47.112,3.848,46.152,2.888,44.972,2.888z M32.133,4.314h12.839c0.395,0,0.714,0.32,0.714,0.714v0.713H31.42V5.028
		C31.42,4.634,31.739,4.314,32.133,4.314z M5.028,14.301h24.964v4.993c0,0.767,0.181,1.49,0.49,2.14H4.314v-6.419
		C4.314,14.621,4.634,14.301,5.028,14.301z M39.979,44.972c0,0.394-0.32,0.715-0.714,0.715H5.028c-0.394,0-0.713-0.321-0.713-0.715
		V22.86h27.185c0.9,0.881,2.132,1.426,3.487,1.426h0.713v4.28h1.427v-4.28h1.427v4.28h1.427V44.972z M39.979,27.141v-2.854h1.427
		v2.854H39.979z M42.12,22.86h-7.134c-1.967,0-3.566-1.6-3.566-3.566V7.167h14.266v12.126C45.686,21.26,44.086,22.86,42.12,22.86z"
		/>
	<path fill="#233B73" d="M40.193,9.706c-0.269-0.675-0.913-1.111-1.641-1.111s-1.371,0.436-1.641,1.11l-2.333,5.833
		c-0.203,0.508-0.306,1.043-0.306,1.59v0.027c0,2.36,1.919,4.28,4.279,4.28c2.359,0,4.279-1.919,4.279-4.307
		c0-0.547-0.103-1.082-0.306-1.59L40.193,9.706z M38.553,20.007c-1.573,0-2.854-1.28-2.854-2.853v-0.027
		c0-0.364,0.068-0.721,0.204-1.059l2.334-5.833c0.051-0.13,0.175-0.214,0.315-0.214c0.14,0,0.264,0.083,0.315,0.214l2.333,5.833
		c0.136,0.339,0.205,0.696,0.205,1.086C41.406,18.727,40.127,20.007,38.553,20.007z"/>
	<path fill="#233B73" d="M7.167,20.007h1.427c0.787,0,1.426-0.64,1.426-1.426v-1.427c0-0.787-0.64-1.427-1.426-1.427H7.167
		c-0.787,0-1.426,0.64-1.426,1.427v1.427C5.741,19.367,6.38,20.007,7.167,20.007z M7.167,17.154h1.427l0,1.427H7.167V17.154z"/>
	<path fill="#233B73" d="M12.874,20.007h1.427c0.787,0,1.426-0.64,1.426-1.426v-1.427c0-0.787-0.64-1.427-1.426-1.427h-1.427
		c-0.786,0-1.426,0.64-1.426,1.427v1.427C11.447,19.367,12.087,20.007,12.874,20.007z M12.874,17.154h1.427l0,1.427h-1.428V17.154z"
		/>
	<path fill="#233B73" d="M18.581,20.007h1.426c0.787,0,1.427-0.64,1.427-1.426v-1.427c0-0.787-0.64-1.427-1.427-1.427h-1.426
		c-0.787,0-1.427,0.64-1.427,1.427v1.427C17.154,19.367,17.793,20.007,18.581,20.007z M18.581,17.154h1.426l0,1.427h-1.427V17.154z"
		/>
	<path fill="#233B73" d="M25.714,34.273H22.86v9.985h2.854c1.573,0,2.853-1.279,2.853-2.854c0-0.851-0.374-1.616-0.968-2.14
		c0.594-0.522,0.968-1.289,0.968-2.14C28.566,35.552,27.287,34.273,25.714,34.273z M25.714,42.832h-1.427v-2.853h1.427
		c0.787,0,1.426,0.64,1.426,1.426C27.14,42.192,26.501,42.832,25.714,42.832z M25.714,38.553h-1.427v-2.854h1.427
		c0.787,0,1.426,0.64,1.426,1.427S26.501,38.553,25.714,38.553z"/>
	<path fill="#233B73" d="M19.377,34.4c-0.064-0.142-0.121-0.285-0.192-0.422l-4.633-8.686c-0.332-0.62-0.975-1.007-1.679-1.007
		c-0.703,0-1.346,0.387-1.679,1.008l-4.632,8.686c-0.538,1.008-0.821,2.146-0.821,3.289c0,3.854,3.135,6.99,6.99,6.99h0.285
		c0.94,0,1.856-0.198,2.71-0.559v0.559h1.427v-2.854h2.853v2.854h1.427v-7.133C21.434,35.831,20.561,34.747,19.377,34.4z
		 M13.017,42.832h-0.285c-3.068,0-5.564-2.495-5.564-5.563c0-0.909,0.226-1.815,0.655-2.618l4.631-8.686
		c0.166-0.312,0.675-0.311,0.84,0l4.498,8.433c-1.188,0.346-2.064,1.431-2.064,2.729v4.986C14.9,42.576,13.975,42.832,13.017,42.832
		L13.017,42.832z M17.154,39.979v-2.854c0-0.787,0.64-1.427,1.427-1.427c0.786,0,1.426,0.64,1.426,1.427v2.854H17.154z"/>
	<path fill="#233B73" d="M29.992,44.259h8.561v-7.133h-8.561V44.259z M31.42,38.553h5.706v4.279H31.42V38.553z"/>
	<path fill="#233B73" d="M29.992,34.273h8.561v1.426h-8.561V34.273z"/>
	<path fill="#233B73" d="M29.992,31.42h8.561v1.427h-8.561V31.42z"/>
	<path fill="#233B73" d="M25.714,24.286h-7.133v5.707h2.853v2.854h7.133v-5.706h-2.853V24.286z M20.007,25.714h4.28v2.853h-4.28
		V25.714z M27.14,28.566v2.854h-4.28v-1.427h2.854v-1.427H27.14z"/>
	<path fill="#233B73" d="M10.021,37.269c0-0.443,0.11-0.885,0.318-1.275l0.358-0.671L9.439,34.65l-0.358,0.671
		c-0.319,0.598-0.486,1.271-0.486,1.947c0,2.281,1.856,4.137,4.137,4.137h0.142v-1.426h-0.142
		C11.237,39.979,10.021,38.764,10.021,37.269L10.021,37.269z"/>
</g>
</svg>
