<?xml version="1.0" encoding="utf-8"?>
<!-- Generator: Adobe Illustrator 16.0.0, SVG Export Plug-In . SVG Version: 6.00 Build 0)  -->
<!DOCTYPE svg PUBLIC "-//W3C//DTD SVG 1.1//EN" "http://www.w3.org/Graphics/SVG/1.1/DTD/svg11.dtd">
<svg version="1.1" id="Layer_1" xmlns="http://www.w3.org/2000/svg" xmlns:xlink="http://www.w3.org/1999/xlink" x="0px" y="0px"
	 width="50px" height="50px" viewBox="0 0 50 50" enable-background="new 0 0 50 50" xml:space="preserve">
<g>
	<path fill="#243A73" d="M15.272,2.276H3.543c-0.406,0-0.733,0.328-0.733,0.732v10.263c0,0.405,0.328,0.733,0.733,0.733h0.733
		v28.589c0,2.829,2.302,5.131,5.131,5.131c2.83,0,5.132-2.302,5.132-5.131V14.005h0.733c0.405,0,0.733-0.328,0.733-0.733V3.009
		C16.005,2.604,15.677,2.276,15.272,2.276z M10.141,12.539V3.742h1.466v8.797H10.141z M7.208,12.539V3.742h1.466v8.797H7.208z
		 M4.276,3.742h1.466v8.797H4.276V3.742z M5.742,19.87h7.331v19.059H5.742V19.87z M9.407,46.258c-2.021,0-3.665-1.644-3.665-3.664
		v-2.198h7.331v2.198C13.073,44.614,11.429,46.258,9.407,46.258z M13.073,18.403H5.742v-4.398h7.331V18.403z M14.539,12.539h-1.466
		V3.742h1.466V12.539z"/>
	<path fill="#243A73" d="M10.141,22.801v-1.466H8.674v1.466H7.208v1.466h1.466v1.466h1.466v-1.466h1.466v-1.466H10.141z"/>
	<path fill="#243A73" d="M7.208,28.667h4.398v1.464H7.208V28.667z"/>
	<path fill="#243A73" d="M7.208,31.598h4.398v1.466H7.208V31.598z"/>
	<path fill="#243A73" d="M7.208,34.53h4.398v1.466H7.208V34.53z"/>
	<path fill="#243A73" d="M30.666,3.009c0-0.404-0.328-0.732-0.732-0.732H18.204c-0.405,0-0.733,0.328-0.733,0.732v10.263
		c0,0.405,0.328,0.733,0.733,0.733h0.733v28.589c0,2.829,2.303,5.131,5.131,5.131c2.83,0,5.131-2.302,5.131-5.131V14.005h0.734
		c0.404,0,0.732-0.328,0.732-0.733V3.009z M24.802,12.539V3.742h1.465v8.797H24.802z M21.87,12.539V3.742h1.466v8.797H21.87z
		 M18.937,3.742h1.466v8.797h-1.466V3.742z M20.403,19.87h7.329v19.059h-7.329V19.87z M24.068,46.258
		c-2.021,0-3.665-1.644-3.665-3.664v-2.198h7.329v2.198C27.732,44.614,26.09,46.258,24.068,46.258z M27.732,18.403h-7.329v-4.398
		h7.329V18.403z M29.199,12.539h-1.467V3.742h1.467V12.539z"/>
	<path fill="#243A73" d="M24.802,22.801v-1.466h-1.466v1.466H21.87v1.466h1.466v1.466h1.466v-1.466h1.465v-1.466H24.802z"/>
	<path fill="#243A73" d="M21.87,28.667h4.397v1.464H21.87V28.667z"/>
	<path fill="#243A73" d="M21.87,31.598h4.397v1.466H21.87V31.598z"/>
	<path fill="#243A73" d="M21.87,34.53h4.397v1.466H21.87V34.53z"/>
	<path fill="#243A73" d="M39.463,11.805c-4.852,0-8.797,3.946-8.797,8.797c0,1.833,0.553,3.571,1.605,5.058l-1.508,2.642
		c-0.152,0.264-0.125,0.594,0.068,0.828c0.143,0.173,0.352,0.268,0.566,0.268c0.078,0,0.156-0.013,0.232-0.037l3.438-1.146
		c1.34,0.773,2.852,1.183,4.395,1.183c4.852,0,8.797-3.945,8.797-8.796C48.26,15.751,44.314,11.805,39.463,11.805L39.463,11.805z
		 M39.463,27.933c-1.383,0-2.736-0.395-3.912-1.139c-0.119-0.076-0.256-0.114-0.393-0.114c-0.078,0-0.156,0.013-0.232,0.038
		l-1.938,0.646l0.795-1.393c0.148-0.26,0.125-0.584-0.063-0.82c-1.037-1.31-1.588-2.884-1.588-4.549c0-4.042,3.289-7.331,7.33-7.331
		s7.33,3.289,7.33,7.331C46.793,24.644,43.504,27.933,39.463,27.933z"/>
	<path fill="#243A73" d="M40.088,15.087c-0.268-0.434-0.982-0.434-1.248,0l-3.18,5.162c-0.727,1.181-0.789,2.628-0.168,3.871
		c0.656,1.316,1.963,2.185,3.49,2.326c0.156,0.014,0.316,0.021,0.48,0.021s0.324-0.008,0.482-0.021
		c1.525-0.141,2.83-1.009,3.488-2.326c0.621-1.242,0.561-2.689-0.168-3.871L40.088,15.087z M42.123,23.464
		c-0.432,0.859-1.295,1.427-2.311,1.521c-0.23,0.021-0.469,0.021-0.697,0c-1.02-0.093-1.881-0.662-2.313-1.521
		c-0.398-0.797-0.361-1.69,0.107-2.446l2.553-4.15l2.553,4.149C42.482,21.774,42.521,22.666,42.123,23.464L42.123,23.464z"/>
</g>
</svg>
