<?xml version="1.0" encoding="utf-8"?>
<!-- Generator: Adobe Illustrator 16.0.0, SVG Export Plug-In . SVG Version: 6.00 Build 0)  -->
<!DOCTYPE svg PUBLIC "-//W3C//DTD SVG 1.1//EN" "http://www.w3.org/Graphics/SVG/1.1/DTD/svg11.dtd">
<svg version="1.1" id="Layer_1" xmlns="http://www.w3.org/2000/svg" xmlns:xlink="http://www.w3.org/1999/xlink" x="0px" y="0px"
	 width="50px" height="50px" viewBox="0 0 50 50" enable-background="new 0 0 50 50" xml:space="preserve">
<g>
	<path fill="#B7B7B8" d="M15.197,24.32h2.316c0.616,0,1.117-0.501,1.117-1.117v-1.424h1.422c0.617,0,1.118-0.5,1.118-1.117v-2.316
		c0-0.616-0.501-1.117-1.118-1.117H18.63v-1.423c0-0.615-0.501-1.117-1.117-1.117h-2.316c-0.616,0-1.117,0.501-1.117,1.117v1.423
		h-1.423c-0.616,0-1.117,0.501-1.117,1.117v2.316c0,0.617,0.501,1.117,1.117,1.117h1.423v1.424
		C14.08,23.819,14.582,24.32,15.197,24.32z M12.959,20.36v-1.71h1.424c0.615,0,1.117-0.501,1.117-1.118v-1.423h1.71v1.423
		c0,0.617,0.5,1.118,1.117,1.118h1.423v1.71h-1.423c-0.617,0-1.117,0.501-1.117,1.117v1.424H15.5v-1.424
		c0-0.616-0.501-1.117-1.117-1.117H12.959z"/>
	<path fill="#B7B7B8" d="M16.354,27.195c1.302,0,2.591-0.332,3.725-0.961c0.343-0.189,0.467-0.622,0.276-0.964
		c-0.189-0.342-0.622-0.467-0.964-0.276c-0.925,0.513-1.976,0.784-3.037,0.784c-3.458,0-6.271-2.813-6.271-6.271
		c0-3.459,2.814-6.272,6.271-6.272c3.459,0,6.272,2.813,6.272,6.271c0,1.395-0.448,2.715-1.298,3.819
		c-0.239,0.311-0.181,0.757,0.13,0.996c0.311,0.239,0.757,0.181,0.996-0.13c1.042-1.354,1.591-2.975,1.591-4.685
		c0-4.241-3.45-7.691-7.691-7.691c-4.24,0-7.69,3.45-7.69,7.691C8.664,23.746,12.114,27.195,16.354,27.195z"/>
	<path fill="#B7B7B8" d="M29.947,20.681h-3.51c-0.392,0-0.709,0.318-0.709,0.709c0,0.394,0.317,0.711,0.709,0.711h3.51
		c0.391,0,0.709-0.318,0.709-0.711C30.656,20.999,30.338,20.681,29.947,20.681z"/>
	<path fill="#B7B7B8" d="M29.947,23.957h-3.51c-0.392,0-0.709,0.318-0.709,0.709c0,0.393,0.317,0.711,0.709,0.711h3.51
		c0.391,0,0.709-0.318,0.709-0.711C30.656,24.274,30.338,23.957,29.947,23.957z"/>
	<path fill="#B7B7B8" d="M29.947,27.23h-7.293c-0.393,0-0.71,0.317-0.71,0.711c0,0.391,0.317,0.709,0.71,0.709h7.293
		c0.391,0,0.709-0.318,0.709-0.709C30.656,27.549,30.338,27.23,29.947,27.23z"/>
	<path fill="#B7B7B8" d="M29.947,30.506h-3.51c-0.392,0-0.709,0.318-0.709,0.711s0.317,0.709,0.709,0.709h3.51
		c0.391,0,0.709-0.316,0.709-0.709S30.338,30.506,29.947,30.506z"/>
	<path fill="#B7B7B8" d="M16.219,31.217c0,0.393,0.318,0.709,0.71,0.709h6.348c0.391,0,0.709-0.316,0.709-0.709
		s-0.318-0.711-0.709-0.711h-6.348C16.537,30.506,16.219,30.824,16.219,31.217L16.219,31.217z"/>
	<path fill="#B7B7B8" d="M9.374,31.926h4.392c0.393,0,0.709-0.316,0.709-0.709s-0.317-0.711-0.709-0.711H9.374
		c-0.392,0-0.709,0.318-0.709,0.711S8.981,31.926,9.374,31.926z"/>
	<path fill="#B7B7B8" d="M29.947,33.781h-8.24c-0.393,0-0.711,0.318-0.711,0.711c0,0.391,0.318,0.709,0.711,0.709h8.24
		c0.391,0,0.709-0.318,0.709-0.709C30.656,34.1,30.338,33.781,29.947,33.781z"/>
	<path fill="#B7B7B8" d="M9.374,35.201h9.125c0.392,0,0.709-0.318,0.709-0.709c0-0.393-0.318-0.711-0.709-0.711H9.374
		c-0.392,0-0.709,0.318-0.709,0.711C8.664,34.883,8.981,35.201,9.374,35.201z"/>
	<path fill="#B7B7B8" d="M29.947,37.057h-8.24c-0.393,0-0.711,0.318-0.711,0.709c0,0.394,0.318,0.711,0.711,0.711h8.24
		c0.391,0,0.709-0.317,0.709-0.711C30.656,37.375,30.338,37.057,29.947,37.057z"/>
	<path fill="#B7B7B8" d="M9.374,38.477h9.125c0.392,0,0.709-0.317,0.709-0.711c0-0.391-0.318-0.709-0.709-0.709H9.374
		c-0.392,0-0.709,0.318-0.709,0.709C8.664,38.158,8.981,38.477,9.374,38.477z"/>
	<path fill="#B7B7B8" d="M29.947,40.332H9.374c-0.392,0-0.709,0.318-0.709,0.711c0,0.391,0.317,0.707,0.709,0.707h20.574
		c0.391,0,0.709-0.316,0.709-0.707C30.656,40.65,30.338,40.332,29.947,40.332z"/>
	<path fill="#B7B7B8" d="M22.706,3.566H16.83c-0.392,0-0.71,0.317-0.71,0.709s0.318,0.709,0.71,0.709h5.875
		c0.393,0,0.711-0.317,0.711-0.709C23.417,3.883,23.099,3.566,22.706,3.566L22.706,3.566z"/>
	<path fill="#B7B7B8" d="M45.741,12.869h-8.037V6.173c0-1.544-1.257-2.801-2.802-2.801h-7.188V2.607C27.715,1.722,26.995,1,26.109,1
		H13.426C12.54,1,11.82,1.722,11.82,2.607v0.765H4.634c-1.545,0-2.802,1.257-2.802,2.801v2.418C1.832,8.983,2.15,9.3,2.541,9.3
		c0.393,0,0.71-0.318,0.71-0.709V6.173c0-0.761,0.62-1.381,1.382-1.381h7.187v1.152c0,0.886,0.72,1.606,1.606,1.606h12.684
		c0.886,0,1.606-0.721,1.606-1.606V4.792h7.187c0.762,0,1.383,0.62,1.383,1.381v6.695h-2.366v-2.366
		c0-0.929-0.756-1.686-1.685-1.686H7.302c-0.929,0-1.685,0.755-1.685,1.686v33.484c0,0.928,0.756,1.686,1.685,1.686h24.933
		c0.385,0,0.744-0.133,1.029-0.354c0.735,0.91,1.721,1.617,2.85,2.008c-0.239,0.428-0.696,0.711-1.211,0.711H4.634
		c-0.763,0-1.382-0.621-1.382-1.381V11.429c0-0.392-0.318-0.709-0.71-0.709s-0.709,0.317-0.709,0.709v35.225
		c0,1.545,1.257,2.803,2.802,2.803h30.27c1.185,0,2.221-0.742,2.623-1.816c0.213,0.021,0.429,0.031,0.646,0.031
		c3.005,0,5.604-2.139,6.181-5.084c0.074-0.385-0.177-0.758-0.562-0.832c-0.385-0.076-0.758,0.176-0.832,0.561
		c-0.444,2.281-2.46,3.938-4.787,3.938c-2.69,0-4.879-2.188-4.879-4.881v-6.517h9.758v4.65c0,0.391,0.317,0.709,0.71,0.709
		c0.391,0,0.709-0.318,0.709-0.709v-19.59h1.272c1.12,0,2.034-0.912,2.034-2.035v-2.979C47.775,13.781,46.861,12.869,45.741,12.869
		L45.741,12.869z M26.296,5.944c0,0.104-0.084,0.187-0.187,0.187H13.426c-0.103,0-0.187-0.083-0.187-0.187V2.607
		c0-0.104,0.084-0.187,0.187-0.187h12.684c0.103,0,0.187,0.083,0.187,0.187V5.944z M32.234,44.252H7.302
		c-0.146,0-0.265-0.119-0.265-0.266V10.502c0-0.146,0.119-0.266,0.265-0.266h24.933c0.146,0,0.267,0.12,0.267,0.266v2.367h-1.899
		c-0.85,0-1.578,0.522-1.881,1.262h-2.281c-0.392,0-0.709,0.318-0.709,0.709c0,0.394,0.317,0.711,0.709,0.711h2.129v1.854h-2.129
		c-0.392,0-0.709,0.318-0.709,0.709c0,0.393,0.317,0.711,0.709,0.711h2.36c0.341,0.648,1.021,1.091,1.802,1.091h1.272v21.456
		c0,0.969,0.219,1.885,0.61,2.705C32.445,44.18,32.348,44.252,32.234,44.252L32.234,44.252z M43.05,33.438h-9.758v-7.104h9.758
		V33.438z M43.05,24.915h-9.758v-4.997h9.758V24.915z M46.355,17.883c0,0.34-0.274,0.615-0.614,0.615h-15.14
		c-0.34,0-0.615-0.275-0.615-0.615v-2.979c0-0.34,0.275-0.616,0.615-0.616h15.141c0.34,0,0.615,0.275,0.615,0.616v2.979H46.355z"/>
	<path fill="#B7B7B8" d="M33.102,15.217c-0.394,0-0.711,0.318-0.711,0.709v0.932c0,0.392,0.317,0.71,0.711,0.71
		c0.391,0,0.707-0.318,0.707-0.71v-0.932C33.809,15.535,33.491,15.217,33.102,15.217z"/>
	<path fill="#B7B7B8" d="M36.48,15.217c-0.394,0-0.711,0.318-0.711,0.709v0.932c0,0.392,0.317,0.71,0.711,0.71
		s0.709-0.318,0.709-0.71v-0.932C37.189,15.535,36.874,15.217,36.48,15.217z"/>
	<path fill="#B7B7B8" d="M39.861,15.217c-0.393,0-0.711,0.318-0.711,0.709v0.932c0,0.392,0.318,0.71,0.711,0.71
		s0.709-0.318,0.709-0.71v-0.932C40.57,15.535,40.254,15.217,39.861,15.217z"/>
	<path fill="#B7B7B8" d="M43.242,15.217c-0.393,0-0.71,0.318-0.71,0.709v0.932c0,0.392,0.317,0.71,0.71,0.71
		c0.395,0,0.711-0.318,0.711-0.71v-0.932C43.953,15.535,43.635,15.217,43.242,15.217z"/>
	<path fill="#B7B7B8" d="M36.467,30.596h0.995v0.994c0,0.395,0.317,0.711,0.709,0.711c0.394,0,0.71-0.316,0.71-0.711v-0.994h0.996
		c0.391,0,0.708-0.316,0.708-0.709c0-0.395-0.317-0.709-0.708-0.709h-0.996v-0.996c0-0.393-0.316-0.711-0.71-0.711
		c-0.392,0-0.709,0.318-0.709,0.711v0.996h-0.995c-0.393,0-0.71,0.314-0.71,0.709C35.757,30.279,36.074,30.596,36.467,30.596z"/>
</g>
</svg>
