<?xml version="1.0" encoding="utf-8"?>
<!-- Generator: Adobe Illustrator 16.0.0, SVG Export Plug-In . SVG Version: 6.00 Build 0)  -->
<!DOCTYPE svg PUBLIC "-//W3C//DTD SVG 1.1//EN" "http://www.w3.org/Graphics/SVG/1.1/DTD/svg11.dtd">
<svg version="1.1" id="Layer_1" xmlns="http://www.w3.org/2000/svg" xmlns:xlink="http://www.w3.org/1999/xlink" x="0px" y="0px"
	 width="50px" height="50px" viewBox="0 0 50 50" enable-background="new 0 0 50 50" xml:space="preserve">
<g>
	<g>
		<path fill="#233B73" d="M34.771,28.738c5.81-5.808,5.81-15.258,0-21.066c-5.81-5.809-15.263-5.809-21.073,0
			c-5.81,5.808-5.81,15.258,0,21.066c2.459,2.46,5.571,3.877,8.783,4.253v4.988h-3.506c-0.968,0-1.753,0.785-1.753,1.751
			c0,0.97,0.785,1.755,1.753,1.755h3.506v4.936c0,0.968,0.785,1.753,1.753,1.753s1.753-0.785,1.753-1.753v-4.936h3.506
			c0.969,0,1.754-0.785,1.754-1.755c0-0.966-0.785-1.751-1.754-1.751h-3.506v-4.988C29.199,32.615,32.312,31.198,34.771,28.738z
			 M16.177,26.26c-4.443-4.441-4.443-11.667,0-16.109c4.443-4.441,11.672-4.441,16.113,0c4.444,4.442,4.444,11.668,0,16.109
			C27.849,30.702,20.62,30.702,16.177,26.26z"/>
	</g>
</g>
</svg>
