<?xml version="1.0" encoding="utf-8"?>
<!-- Generator: Adobe Illustrator 16.0.0, SVG Export Plug-In . SVG Version: 6.00 Build 0)  -->
<!DOCTYPE svg PUBLIC "-//W3C//DTD SVG 1.1//EN" "http://www.w3.org/Graphics/SVG/1.1/DTD/svg11.dtd">
<svg version="1.1" id="Layer_1" xmlns="http://www.w3.org/2000/svg" xmlns:xlink="http://www.w3.org/1999/xlink" x="0px" y="0px"
	 width="50px" height="50px" viewBox="0 0 50 50" enable-background="new 0 0 50 50" xml:space="preserve">
<g>
	<g>
		<path fill="#059A49" d="M48.57,6.835c-0.735-0.737-1.93-0.738-2.664-0.003L23.299,29.379l-8.156-8.858
			c-0.705-0.765-1.896-0.814-2.663-0.11c-0.766,0.705-0.815,1.897-0.11,2.663l9.485,10.302c0.347,0.377,0.833,0.596,1.346,0.607
			c0.014,0,0.027,0,0.04,0c0.498,0,0.978-0.197,1.331-0.55L48.566,9.5C49.305,8.766,49.305,7.572,48.57,6.835z"/>
	</g>
</g>
<g>
	<g>
		<path fill="#059A49" d="M48.115,23.116c-1.041,0-1.885,0.843-1.885,1.884c0,11.707-9.523,21.23-21.23,21.23
			C13.293,46.23,3.769,36.707,3.769,25C3.769,13.293,13.293,3.769,25,3.769c1.041,0,1.885-0.844,1.885-1.885
			C26.885,0.844,26.041,0,25,0C11.215,0,0,11.215,0,25s11.215,25,25,25s25-11.215,25-25C50,23.959,49.156,23.116,48.115,23.116z"/>
	</g>
</g>
</svg>
