<?xml version="1.0" encoding="utf-8"?>
<!-- Generator: Adobe Illustrator 16.0.0, SVG Export Plug-In . SVG Version: 6.00 Build 0)  -->
<!DOCTYPE svg PUBLIC "-//W3C//DTD SVG 1.1//EN" "http://www.w3.org/Graphics/SVG/1.1/DTD/svg11.dtd">
<svg version="1.1" id="Layer_1" xmlns="http://www.w3.org/2000/svg" xmlns:xlink="http://www.w3.org/1999/xlink" x="0px" y="0px"
	 width="50px" height="50px" viewBox="0 0 50 50" enable-background="new 0 0 50 50" xml:space="preserve">
<g id="Page-1">
	<g id="_x30_21---Tick-File">
		<path id="Shape" fill="#019A49" d="M45.638,5.979c-0.002-2.124-1.724-3.846-3.849-3.848H11.003
			C8.879,2.133,7.157,3.854,7.155,5.979v26.938c0,0.425,0.345,0.771,0.77,0.771s0.77-0.346,0.77-0.771V5.979
			c0-1.274,1.034-2.31,2.309-2.31h30.786c1.274,0,2.31,1.035,2.31,2.31v30.017h-5.388c-2.124,0.002-3.846,1.726-3.849,3.848v5.389
			H20.239c-0.425,0-0.77,0.345-0.77,0.77s0.345,0.771,0.77,0.771h15.394c0.204,0,0.398-0.082,0.543-0.227l9.235-9.235
			c0.145-0.145,0.227-0.34,0.227-0.544V5.979z M38.711,37.535h4.3l-6.608,6.608v-4.301C36.402,38.569,37.436,37.535,38.711,37.535z"
			/>
		<path id="Shape_1_" fill="#019A49" d="M3.307,39.074c-0.002,0.817,0.322,1.601,0.902,2.177l6.158,6.156
			c0.576,0.58,1.359,0.904,2.176,0.902c0.082,0,0.164,0,0.249-0.01c0.9-0.071,1.723-0.535,2.25-1.271l13.854-19.241
			c0.657-0.892,0.784-2.068,0.333-3.079c-0.452-1.012-1.411-1.704-2.514-1.812c-1.103-0.106-2.178,0.388-2.815,1.293l-0.972,1.349
			c-0.167,0.224-0.201,0.519-0.089,0.774c0.113,0.256,0.355,0.43,0.632,0.455c0.277,0.026,0.547-0.1,0.706-0.329l0.971-1.349
			c0.317-0.458,0.856-0.71,1.411-0.659c0.556,0.052,1.04,0.4,1.265,0.91c0.227,0.509,0.158,1.102-0.177,1.548L13.792,46.131
			c-0.263,0.366-0.673,0.598-1.124,0.635c-0.45,0.035-0.894-0.129-1.213-0.445l-6.158-6.158c-0.601-0.601-0.601-1.574,0-2.176
			c0.609-0.582,1.568-0.582,2.176,0l4.238,4.237c0.159,0.16,0.381,0.243,0.606,0.223c0.224-0.019,0.43-0.134,0.562-0.317
			l9.082-12.61c0.167-0.223,0.202-0.52,0.089-0.774c-0.113-0.254-0.355-0.429-0.632-0.455c-0.278-0.026-0.548,0.1-0.706,0.33
			l-8.555,11.876l-3.595-3.598c-1.219-1.161-3.135-1.161-4.354,0C3.629,37.474,3.305,38.257,3.307,39.074L3.307,39.074z"/>
		<path id="Shape_2_" fill="#019A49" d="M14.082,6.749h-1.54c-0.424,0-0.77,0.344-0.77,0.77c0,0.425,0.345,0.771,0.77,0.771h1.54
			c0.425,0,0.77-0.345,0.77-0.771C14.852,7.092,14.507,6.749,14.082,6.749z"/>
		<path id="Shape_3_" fill="#019A49" d="M40.25,6.749H17.161c-0.425,0-0.77,0.344-0.77,0.77c0,0.425,0.345,0.771,0.77,0.771H40.25
			c0.426,0,0.771-0.345,0.771-0.771C41.021,7.092,40.676,6.749,40.25,6.749z"/>
		<path id="Shape_4_" fill="#019A49" d="M14.082,11.366h-1.54c-0.424,0-0.77,0.345-0.77,0.771c0,0.424,0.345,0.77,0.77,0.77h1.54
			c0.425,0,0.77-0.345,0.77-0.77C14.852,11.711,14.507,11.366,14.082,11.366z"/>
		<path id="Shape_5_" fill="#019A49" d="M17.161,12.906h17.702c0.425,0,0.771-0.345,0.771-0.77c0-0.425-0.346-0.771-0.771-0.771
			H17.161c-0.425,0-0.77,0.345-0.77,0.771C16.391,12.561,16.735,12.906,17.161,12.906z"/>
		<path id="Shape_6_" fill="#019A49" d="M14.082,15.984h-1.54c-0.424,0-0.77,0.344-0.77,0.77c0,0.425,0.345,0.77,0.77,0.77h1.54
			c0.425,0,0.77-0.345,0.77-0.77C14.852,16.328,14.507,15.984,14.082,15.984z"/>
		<path id="Shape_7_" fill="#019A49" d="M17.161,17.524h12.314c0.426,0,0.771-0.345,0.771-0.77c0-0.426-0.345-0.77-0.771-0.77
			H17.161c-0.425,0-0.77,0.344-0.77,0.77C16.391,17.179,16.735,17.524,17.161,17.524z"/>
		<path id="Shape_8_" fill="#019A49" d="M42.56,18.294c0-0.425-0.346-0.77-0.771-0.77s-0.769,0.345-0.769,0.77v10.774
			c0,0.425,0.344,0.771,0.769,0.771s0.771-0.346,0.771-0.771V18.294z"/>
		<path id="Shape_9_" fill="#019A49" d="M41.789,31.378c-0.425,0-0.769,0.345-0.769,0.77v1.54c0,0.425,0.344,0.769,0.769,0.769
			s0.771-0.344,0.771-0.769v-1.54C42.56,31.723,42.214,31.378,41.789,31.378z"/>
	</g>
</g>
</svg>
