<?xml version="1.0" encoding="utf-8"?>
<!-- Generator: Adobe Illustrator 16.0.0, SVG Export Plug-In . SVG Version: 6.00 Build 0)  -->
<!DOCTYPE svg PUBLIC "-//W3C//DTD SVG 1.1//EN" "http://www.w3.org/Graphics/SVG/1.1/DTD/svg11.dtd">
<svg version="1.1" id="Layer_1" xmlns="http://www.w3.org/2000/svg" xmlns:xlink="http://www.w3.org/1999/xlink" x="0px" y="0px"
	 width="384px" height="384px" viewBox="0 0 384 384" enable-background="new 0 0 384 384" xml:space="preserve">
<path fill="#243A73" d="M367.061,29.472c-0.16-1.259-0.438-2.471-0.898-3.608c-0.014-0.028-0.014-0.068-0.021-0.104
	c0-0.007-0.008-0.014-0.015-0.021c-0.507-1.198-1.198-2.286-1.979-3.295c-0.193-0.239-0.382-0.474-0.585-0.699
	c-0.835-0.941-1.74-1.811-2.792-2.521c-0.028-0.021-0.064-0.029-0.093-0.05c-1.016-0.67-2.139-1.176-3.315-1.576
	c-0.293-0.104-0.578-0.192-0.877-0.271c-1.234-0.335-2.504-0.578-3.841-0.578H250.417c-8.062,0-14.604,6.542-14.604,14.604
	s6.543,14.604,14.604,14.604h66.967l-87.165,87.165c-23.244-18.59-51.86-28.749-82.031-28.749
	c-72.472,0-131.438,58.966-131.438,131.438S75.716,367.25,148.188,367.25s131.438-58.966,131.438-131.438
	c0-30.157-10.151-58.766-28.756-82.031l87.173-87.172v66.974c0,8.062,6.542,14.604,14.604,14.604s14.604-6.542,14.604-14.604V31.354
	c0-0.307-0.071-0.599-0.089-0.898C367.14,30.121,367.104,29.8,367.061,29.472z M148.188,338.042
	c-56.374,0-102.229-45.855-102.229-102.229s45.855-102.229,102.229-102.229c27.293,0,52.99,10.625,72.312,29.878
	c19.293,19.36,29.918,45.057,29.918,72.351C250.417,292.187,204.561,338.042,148.188,338.042z"/>
</svg>
