<?xml version="1.0" encoding="utf-8"?>
<!-- Generator: Adobe Illustrator 16.0.0, SVG Export Plug-In . SVG Version: 6.00 Build 0)  -->
<!DOCTYPE svg PUBLIC "-//W3C//DTD SVG 1.1//EN" "http://www.w3.org/Graphics/SVG/1.1/DTD/svg11.dtd">
<svg version="1.1" id="Layer_1" xmlns="http://www.w3.org/2000/svg" xmlns:xlink="http://www.w3.org/1999/xlink" x="0px" y="0px"
	 width="50px" height="50px" viewBox="0 0 50 50" enable-background="new 0 0 50 50" xml:space="preserve">
<path fill="#233B73" d="M9.236,23.652h5.071c0.426,0,0.771-0.346,0.772-0.771v-1.715c0-0.293-0.238-0.529-0.53-0.529
	s-0.53,0.236-0.53,0.529v1.427H9.524v-4.489h2.248c0.292,0,0.53-0.237,0.53-0.53c0-0.292-0.237-0.529-0.53-0.529H9.236
	c-0.426,0-0.771,0.345-0.772,0.771v5.065C8.465,23.307,8.81,23.652,9.236,23.652L9.236,23.652z"/>
<path fill="#233B73" d="M15.518,16.747c-0.225-0.188-0.559-0.157-0.747,0.068l0,0l-2.527,3.037l-0.811-0.656
	c-0.226-0.187-0.559-0.155-0.746,0.07c-0.187,0.226-0.155,0.56,0.07,0.745c0.003,0.003,0.006,0.006,0.01,0.009l0.975,0.788
	c0.332,0.273,0.816,0.252,1.123-0.049l0.021-0.021l2.701-3.246C15.773,17.269,15.743,16.935,15.518,16.747L15.518,16.747
	L15.518,16.747z"/>
<path fill="#233B73" d="M41.207,17.414H20.531c-0.292,0-0.53,0.237-0.53,0.53c0,0.293,0.237,0.529,0.53,0.529h20.676
	c0.292,0,0.53-0.236,0.53-0.529C41.737,17.651,41.499,17.414,41.207,17.414z"/>
<path fill="#233B73" d="M41.207,21.804H20.531c-0.292,0-0.53,0.237-0.53,0.529c0,0.293,0.237,0.53,0.53,0.53h20.676
	c0.292,0,0.53-0.237,0.53-0.53C41.737,22.041,41.499,21.804,41.207,21.804z"/>
<path fill="#233B73" d="M14.55,31.867c-0.292,0-0.53,0.236-0.53,0.529v1.427H9.524v-4.489h2.248c0.292,0,0.53-0.237,0.53-0.529
	c0-0.293-0.237-0.53-0.53-0.53H9.236c-0.426,0.001-0.771,0.346-0.772,0.771v5.064c0,0.427,0.346,0.772,0.772,0.772h5.071
	c0.426,0,0.771-0.346,0.772-0.772v-1.714C15.08,32.104,14.842,31.867,14.55,31.867z"/>
<path fill="#233B73" d="M15.518,27.978c-0.225-0.188-0.559-0.157-0.747,0.068l0,0l-2.527,3.037l-0.812-0.656
	c-0.225-0.187-0.559-0.155-0.746,0.07c-0.186,0.226-0.154,0.56,0.071,0.746c0.003,0.003,0.006,0.005,0.009,0.007l0.975,0.789
	c0.332,0.273,0.816,0.252,1.123-0.049l0.021-0.021l2.701-3.245C15.773,28.498,15.743,28.164,15.518,27.978L15.518,27.978z"/>
<path fill="#233B73" d="M41.207,28.644h-4.305c-0.293,0-0.53,0.237-0.53,0.53s0.237,0.53,0.53,0.53h4.305
	c0.292,0,0.53-0.237,0.53-0.53S41.499,28.644,41.207,28.644L41.207,28.644z"/>
<path fill="#233B73" d="M27.247,28.644h-6.716c-0.292,0-0.53,0.237-0.53,0.53s0.237,0.53,0.53,0.53h6.716
	c0.291,0,0.529-0.237,0.529-0.53S27.538,28.644,27.247,28.644z"/>
<path fill="#233B73" d="M22.341,33.034h-1.81c-0.292,0-0.53,0.237-0.53,0.53c0,0.292,0.237,0.529,0.53,0.529h1.81
	c0.292,0,0.53-0.237,0.53-0.529C22.871,33.271,22.633,33.034,22.341,33.034z"/>
<path fill="#233B73" d="M43.88,3.948H5.665c-1.347,0.001-2.438,1.093-2.44,2.44v31.668c0.001,1.347,1.091,2.438,2.437,2.441
	L25.87,40.64l1.023,4.022c0.002,0.007,0.004,0.015,0.006,0.021c0.477,1.615,1.962,2.721,3.645,2.713h7.388
	c2.102-0.003,3.804-1.705,3.806-3.806v-2.977l2.158-0.117c1.341-0.01,2.423-1.1,2.425-2.44V6.388
	C46.318,5.041,45.228,3.949,43.88,3.948z M5.665,5.007H43.88c0.763,0,1.38,0.619,1.381,1.38v5.365H4.284V6.388
	C4.285,5.626,4.903,5.008,5.665,5.007L5.665,5.007z M40.678,43.591c-0.002,1.515-1.229,2.744-2.746,2.746h-7.388
	c-1.21,0.005-2.279-0.788-2.625-1.947l-1.123-4.407c-0.264-1.038-0.616-2.052-1.053-3.029l-0.088-0.206
	c1.146,0,2.219,0.563,2.87,1.507l0.911,1.32v1.968c0,0.293,0.238,0.529,0.53,0.529s0.529-0.236,0.529-0.529l0,0V27.141
	c0-0.55,0.446-0.997,0.996-0.997c0.551-0.001,0.997,0.444,0.998,0.995c0,0.001,0,0.002,0,0.002v9.406
	c0,0.052,0.007,0.103,0.022,0.152v2.16c0,0.293,0.237,0.53,0.529,0.53c0.293,0,0.53-0.237,0.53-0.53V35.9
	c0-0.437,0.353-0.791,0.79-0.791c0.436-0.001,0.791,0.353,0.791,0.789c0,0,0,0.001,0,0.002v0.6
	c-0.014,0.093-0.021,0.187-0.021,0.279v2.08c0,0.293,0.236,0.53,0.53,0.53h0.01c0,0,0.007,0,0.01,0c0.293,0,0.53-0.237,0.53-0.53
	v-2.265c0.101-0.458,0.555-0.748,1.013-0.647c0.391,0.086,0.668,0.433,0.668,0.832v2.63c0,0.292,0.236,0.529,0.53,0.529
	c0.292,0,0.529-0.237,0.529-0.529V37.61c-0.005-0.477,0.377-0.866,0.854-0.871c0.476-0.005,0.865,0.377,0.871,0.853
	c0,0.007,0,0.013,0,0.019V43.591z M43.88,39.438c-0.01,0-0.02,0-0.029,0.001l-2.113,0.114V37.61
	c0.001-1.061-0.857-1.921-1.918-1.923c-0.368,0-0.728,0.105-1.037,0.303c-0.435-0.96-1.564-1.386-2.525-0.952
	c-0.07,0.032-0.14,0.068-0.205,0.108c-0.412-0.93-1.499-1.352-2.43-0.94c-0.024,0.011-0.049,0.022-0.072,0.034v-7.1
	c0-1.136-0.92-2.057-2.055-2.058c-1.137,0-2.057,0.919-2.059,2.056v0.002v10.567l-0.039-0.056c-0.848-1.23-2.248-1.965-3.742-1.965
	c-0.587,0-1.063,0.477-1.063,1.063c0,0.15,0.032,0.298,0.092,0.435l0.09,0.199c0.318,0.713,0.589,1.445,0.811,2.193l-19.92-0.142
	c-0.762-0.001-1.379-0.618-1.38-1.38V12.813h40.977v25.244C45.26,38.818,44.643,39.436,43.88,39.438L43.88,39.438z"/>
<path fill="#233B73" d="M7.658,10.344c1.122,0,2.031-0.909,2.031-2.03c0-1.123-0.909-2.031-2.031-2.031
	c-1.122,0-2.032,0.909-2.032,2.031C5.628,9.435,6.537,10.343,7.658,10.344z M7.658,7.342c0.536,0,0.971,0.435,0.971,0.972
	c0,0.536-0.435,0.971-0.971,0.971c-0.537,0-0.972-0.435-0.972-0.971C6.687,7.777,7.122,7.343,7.658,7.342z"/>
<path fill="#233B73" d="M13.012,10.344c1.122,0,2.031-0.909,2.031-2.03c0-1.123-0.909-2.031-2.031-2.031
	c-1.122,0-2.031,0.909-2.031,2.031C10.982,9.435,11.891,10.343,13.012,10.344z M13.012,7.342c0.537,0,0.972,0.435,0.972,0.972
	c0,0.536-0.435,0.971-0.972,0.971c-0.536,0-0.971-0.435-0.971-0.971C12.042,7.777,12.476,7.343,13.012,7.342z"/>
<path fill="#233B73" d="M18.367,10.344c1.122,0,2.031-0.909,2.031-2.03c0-1.123-0.909-2.031-2.031-2.031s-2.031,0.909-2.031,2.031
	C16.337,9.435,17.246,10.343,18.367,10.344z M18.367,7.342c0.536,0,0.971,0.435,0.971,0.972c0,0.536-0.435,0.971-0.971,0.971
	c-0.537,0-0.972-0.435-0.972-0.971C17.396,7.777,17.831,7.343,18.367,7.342z"/>
<path fill="#233B73" d="M26.274,8.743h17.215c0.292,0,0.529-0.237,0.529-0.529c0-0.293-0.237-0.53-0.529-0.53l0,0H26.274
	c-0.293,0-0.531,0.237-0.531,0.53C25.743,8.506,25.981,8.743,26.274,8.743z"/>
</svg>
