<?xml version="1.0" encoding="utf-8"?>
<!-- Generator: Adobe Illustrator 16.0.0, SVG Export Plug-In . SVG Version: 6.00 Build 0)  -->
<!DOCTYPE svg PUBLIC "-//W3C//DTD SVG 1.1//EN" "http://www.w3.org/Graphics/SVG/1.1/DTD/svg11.dtd">
<svg version="1.1" id="Layer_1" xmlns="http://www.w3.org/2000/svg" xmlns:xlink="http://www.w3.org/1999/xlink" x="0px" y="0px"
	 width="50px" height="50px" viewBox="0 0 50 50" enable-background="new 0 0 50 50" xml:space="preserve">
<g>
	<g>
		<polygon fill="#233B73" points="39.903,25.816 34.028,31.691 32.821,30.484 31.501,31.804 34.028,34.331 41.224,27.137 		"/>
	</g>
</g>
<g>
	<g>
		<rect x="9.757" y="21.809" fill="#233B73" width="1.867" height="1.867"/>
	</g>
</g>
<g>
	<g>
		<rect x="14.425" y="21.809" fill="#233B73" width="1.867" height="1.867"/>
	</g>
</g>
<g>
	<g>
		<rect x="19.092" y="21.809" fill="#233B73" width="1.867" height="1.867"/>
	</g>
</g>
<g>
	<g>
		<rect x="23.76" y="21.809" fill="#233B73" width="1.867" height="1.867"/>
	</g>
</g>
<g>
	<g>
		<rect x="28.428" y="21.809" fill="#233B73" width="1.867" height="1.867"/>
	</g>
</g>
<g>
	<g>
		<rect x="33.095" y="21.809" fill="#233B73" width="1.867" height="1.867"/>
	</g>
</g>
<g>
	<g>
		<rect x="37.763" y="21.809" fill="#233B73" width="1.867" height="1.867"/>
	</g>
</g>
<g>
	<g>
		<rect x="9.757" y="26.477" fill="#233B73" width="1.867" height="1.867"/>
	</g>
</g>
<g>
	<g>
		<rect x="14.425" y="26.477" fill="#233B73" width="1.867" height="1.867"/>
	</g>
</g>
<g>
	<g>
		<rect x="19.092" y="26.477" fill="#233B73" width="1.867" height="1.867"/>
	</g>
</g>
<g>
	<g>
		<rect x="23.76" y="26.477" fill="#233B73" width="1.867" height="1.867"/>
	</g>
</g>
<g>
	<g>
		<rect x="9.757" y="31.145" fill="#233B73" width="1.867" height="1.866"/>
	</g>
</g>
<g>
	<g>
		<rect x="14.425" y="31.145" fill="#233B73" width="1.867" height="1.866"/>
	</g>
</g>
<g>
	<g>
		<rect x="19.092" y="31.145" fill="#233B73" width="1.867" height="1.866"/>
	</g>
</g>
<g>
	<g>
		<rect x="23.76" y="31.145" fill="#233B73" width="1.867" height="1.866"/>
	</g>
</g>
<g>
	<g>
		<rect x="9.757" y="35.812" fill="#233B73" width="1.867" height="1.867"/>
	</g>
</g>
<g>
	<g>
		<rect x="14.425" y="35.812" fill="#233B73" width="1.867" height="1.867"/>
	</g>
</g>
<g>
	<g>
		<rect x="19.092" y="35.812" fill="#233B73" width="1.867" height="1.867"/>
	</g>
</g>
<g>
	<g>
		<rect x="9.757" y="40.479" fill="#233B73" width="1.867" height="1.867"/>
	</g>
</g>
<g>
	<g>
		<rect x="14.425" y="40.479" fill="#233B73" width="1.867" height="1.867"/>
	</g>
</g>
<g>
	<g>
		<rect x="19.092" y="40.479" fill="#233B73" width="1.867" height="1.867"/>
	</g>
</g>
<g>
	<g>
		<rect x="23.76" y="35.812" fill="#233B73" width="1.867" height="1.867"/>
	</g>
</g>
<g>
	<g>
		<path fill="#233B73" d="M40.563,5.939V2.205h-5.602v3.734H14.425V2.205H8.824v3.734H1.355v8.402v1.867v32.673h38.661l0.433-0.433
			l7.146-7.146l0.436-0.436V16.208v-1.867V5.939H40.563z M36.829,5.939V4.072h1.867v1.867v3.734h-1.867V5.939z M10.69,5.939V4.072
			h1.867v1.867v3.734H10.69V5.939z M40.563,45.693v-4.28h4.28L40.563,45.693z M46.164,39.546h-7.468v7.468H3.223V16.208h42.941
			V39.546z M46.164,14.341H3.223V7.806h5.601v3.734h5.601V7.806h20.537v3.734h5.602V7.806h5.601V14.341z"/>
	</g>
</g>
<g>
	<g>
		<polygon fill="#233B73" points="37.763,33.011 37.763,35.812 30.295,35.812 30.295,28.344 34.962,28.344 34.962,26.477 
			28.428,26.477 28.428,37.679 39.63,37.679 39.63,33.011 		"/>
	</g>
</g>
</svg>
