<?xml version="1.0" encoding="utf-8"?>
<!-- Generator: Adobe Illustrator 16.0.0, SVG Export Plug-In . SVG Version: 6.00 Build 0)  -->
<!DOCTYPE svg PUBLIC "-//W3C//DTD SVG 1.1//EN" "http://www.w3.org/Graphics/SVG/1.1/DTD/svg11.dtd">
<svg version="1.1" id="Layer_1" xmlns="http://www.w3.org/2000/svg" xmlns:xlink="http://www.w3.org/1999/xlink" x="0px" y="0px"
	 width="50px" height="50px" viewBox="0 0 50 50" enable-background="new 0 0 50 50" xml:space="preserve">
<g>
	<path fill="#233B73" d="M35.017,27.34h-6.339c-0.356,0-0.645,0.288-0.645,0.646c0,0.355,0.288,0.646,0.645,0.646h6.339
		c0.356,0,0.646-0.29,0.646-0.646C35.663,27.628,35.373,27.34,35.017,27.34z"/>
	<path fill="#233B73" d="M30.81,30.176h-2.132c-0.356,0-0.645,0.29-0.645,0.646s0.288,0.646,0.645,0.646h2.132
		c0.358,0,0.646-0.29,0.646-0.646S31.168,30.176,30.81,30.176z"/>
	<path fill="#233B73" d="M44.058,36.34h-2.794V18.78c0-0.357-0.288-0.646-0.646-0.646c-0.355,0-0.646,0.289-0.646,0.646v17.56
		h-2.436v-2.363c0.851-0.27,1.47-1.067,1.47-2.008v-5.142c0-0.939-0.619-1.737-1.47-2.005V6.787h1.272
		c0.643,0,1.163,0.522,1.163,1.163v7.803c0,0.356,0.29,0.645,0.646,0.645c0.358,0,0.646-0.289,0.646-0.645V7.95
		c0-1.354-1.1-2.456-2.455-2.456h-5.717c-0.209-0.468-0.678-0.796-1.221-0.796h-3.672c-0.339-1.193-1.442-2.053-2.713-2.053
		c-1.286,0-2.378,0.863-2.713,2.053H19.1c-0.544,0-1.013,0.328-1.221,0.796h-5.717c-1.354,0-2.455,1.102-2.455,2.456v3.945
		c-2.767,0.502-4.871,2.927-4.871,5.835c0,2.909,2.104,5.333,4.871,5.836v17.847c0,1.353,1.101,2.455,2.455,2.455h7.46
		c0.312,0.642,0.737,1.229,1.263,1.727c0.26,0.245,0.669,0.231,0.913-0.027c0.246-0.259,0.234-0.67-0.026-0.913
		c-0.939-0.888-1.458-2.085-1.458-3.378c0-2.558,2.082-4.639,4.641-4.639c2.56,0,4.641,2.081,4.641,4.639
		c0,2.561-2.081,4.642-4.641,4.642c-0.283,0-0.566-0.025-0.842-0.076c-0.351-0.064-0.687,0.169-0.752,0.52
		c-0.063,0.351,0.168,0.688,0.52,0.752c0.353,0.064,0.714,0.098,1.075,0.098c2.344,0,4.374-1.367,5.338-3.343h1.567
		c0.138,1.025,1.02,1.82,2.085,1.82h10.111c1.158,0,2.103-0.942,2.103-2.103v-5.142C46.16,37.284,45.216,36.34,44.058,36.34z
		 M37.715,31.969c0,0.448-0.364,0.813-0.812,0.813H26.792c-0.448,0-0.812-0.364-0.812-0.813v-5.142c0-0.447,0.364-0.812,0.812-0.812
		h10.111c0.447,0,0.812,0.364,0.812,0.812V31.969L37.715,31.969z M25.486,3.938c0.556,0,1.052,0.304,1.319,0.76h-2.64
		C24.43,4.242,24.923,3.938,25.486,3.938L25.486,3.938z M19.058,6.033c0-0.023,0.019-0.042,0.042-0.042h12.771
		c0.023,0,0.042,0.02,0.042,0.042V7.74c0,0.024-0.019,0.044-0.042,0.044H19.1c-0.023,0-0.042-0.02-0.042-0.044V6.033z M21.009,9.075
		h8.952v0.146c0,0.72-0.564,1.31-1.26,1.314c-0.21,0.003-0.404-0.045-0.586-0.138c-0.654-0.335-1.415-0.339-2.034-0.009
		c-0.185,0.098-0.385,0.147-0.595,0.147c-0.211,0-0.411-0.049-0.595-0.147c-0.62-0.331-1.38-0.327-2.035,0.009
		c-0.182,0.093-0.382,0.14-0.586,0.138c-0.696-0.004-1.261-0.594-1.261-1.314V9.075z M6.128,17.73c0-2.559,2.082-4.641,4.641-4.641
		s4.641,2.083,4.641,4.641c0,2.559-2.082,4.641-4.641,4.641S6.128,20.29,6.128,17.73z M13.162,29.489c0-2.559,2.082-4.64,4.641-4.64
		c2.558,0,4.64,2.082,4.64,4.64c0,2.56-2.082,4.641-4.64,4.641C15.244,34.13,13.162,32.049,13.162,29.489L13.162,29.489z
		 M12.162,42.575c-0.642,0-1.164-0.521-1.164-1.162V23.658c0.875-0.033,1.7-0.257,2.438-0.63v2.451
		c-0.971,1.056-1.566,2.466-1.566,4.01c0,1.545,0.595,2.955,1.566,4.012v3.37c0,0.596,0.483,1.078,1.077,1.078h5.536
		c-0.646,0.948-1.025,2.095-1.025,3.327c0,0.44,0.052,0.876,0.147,1.299H12.162L12.162,42.575z M21.242,36.657h-6.514v-2.095
		c0.897,0.545,1.95,0.86,3.075,0.86c3.271,0,5.933-2.661,5.933-5.934c0-3.271-2.661-5.933-5.933-5.933
		c-1.125,0-2.178,0.315-3.075,0.86v-2.272c1.211-1.087,1.974-2.663,1.974-4.415c0-3.194-2.538-5.805-5.703-5.927V7.95
		c0-0.642,0.522-1.164,1.164-1.164h1.274v3.344c0,0.357,0.289,0.646,0.646,0.646c0.357,0,0.646-0.289,0.646-0.646V6.787h3.038V7.74
		c0,0.736,0.599,1.335,1.334,1.335h0.617v0.146c0,1.428,1.142,2.598,2.544,2.607c0.413,0.003,0.821-0.096,1.185-0.281
		c0.278-0.143,0.591-0.15,0.837-0.019c0.367,0.195,0.784,0.3,1.202,0.3s0.834-0.104,1.203-0.3c0.245-0.131,0.559-0.125,0.837,0.019
		c0.364,0.186,0.773,0.284,1.184,0.281c1.403-0.009,2.545-1.179,2.545-2.607V9.075h0.617c0.735,0,1.335-0.6,1.335-1.335V6.787h3.037
		v17.938h-9.451c-1.16,0-2.104,0.943-2.104,2.103v5.142c0,1.16,0.943,2.104,2.104,2.104h9.451v2.267h-2.297
		c-0.407,0-0.787,0.116-1.108,0.317h-4.166c-1.018-0.82-2.311-1.313-3.716-1.313S22.259,35.837,21.242,36.657L21.242,36.657z
		 M29.865,37.949h2.037c-0.039,0.158-0.061,0.323-0.061,0.495v4.131h-1.097c0.094-0.417,0.145-0.851,0.145-1.299
		C30.89,40.044,30.512,38.897,29.865,37.949L29.865,37.949z M44.867,43.586c0,0.447-0.363,0.812-0.81,0.812H33.946
		c-0.448,0-0.813-0.364-0.813-0.812v-5.142c0-0.448,0.364-0.813,0.813-0.813h10.111c0.446,0,0.81,0.364,0.81,0.813V43.586
		L44.867,43.586z"/>
	<path fill="#233B73" d="M42.171,38.954h-6.339c-0.355,0-0.646,0.29-0.646,0.646c0,0.358,0.29,0.646,0.646,0.646h6.339
		c0.356,0,0.645-0.288,0.645-0.646C42.815,39.244,42.527,38.954,42.171,38.954L42.171,38.954z"/>
	<path fill="#233B73" d="M40.711,41.791h-4.879c-0.355,0-0.646,0.29-0.646,0.646c0,0.358,0.29,0.646,0.646,0.646h4.879
		c0.356,0,0.646-0.288,0.646-0.646C41.357,42.081,41.067,41.791,40.711,41.791z"/>
	<path fill="#233B73" d="M31.972,20.302V15.16c0-1.161-0.942-2.104-2.103-2.104H19.758c-1.16,0-2.104,0.943-2.104,2.104v5.142
		c0,1.16,0.943,2.103,2.104,2.103h10.111C31.029,22.405,31.972,21.462,31.972,20.302z M18.946,20.302V15.16
		c0-0.448,0.364-0.812,0.812-0.812h10.111c0.448,0,0.813,0.364,0.813,0.812v5.142c0,0.447-0.364,0.811-0.813,0.811H19.758
		C19.311,21.113,18.946,20.749,18.946,20.302z"/>
	<path fill="#233B73" d="M27.983,15.671h-6.339c-0.356,0-0.645,0.289-0.645,0.646c0,0.356,0.289,0.646,0.645,0.646h6.339
		c0.355,0,0.646-0.289,0.646-0.646C28.629,15.96,28.339,15.671,27.983,15.671z"/>
	<path fill="#233B73" d="M27.983,18.507h-6.339c-0.356,0-0.645,0.289-0.645,0.646c0,0.356,0.289,0.646,0.645,0.646h6.339
		c0.355,0,0.646-0.289,0.646-0.646C28.629,18.796,28.339,18.507,27.983,18.507z"/>
	<path fill="#233B73" d="M19.822,32.088c-0.004-0.356-0.296-0.641-0.654-0.639c-0.472,0.006-0.972,0.01-1.402,0.012
		c0.279-0.376,0.655-0.892,1.149-1.597c0.333-0.477,0.552-0.927,0.647-1.341c0.005-0.021,0.009-0.043,0.012-0.064l0.025-0.198
		c0.004-0.027,0.005-0.055,0.005-0.082c0-1.082-0.88-1.963-1.962-1.963c-0.936,0-1.745,0.666-1.925,1.583
		c-0.069,0.351,0.159,0.689,0.509,0.758c0.351,0.069,0.69-0.158,0.758-0.509c0.062-0.313,0.339-0.541,0.658-0.541
		c0.358,0,0.652,0.284,0.67,0.637l-0.015,0.117c-0.063,0.243-0.214,0.541-0.44,0.864c-0.815,1.162-1.301,1.799-1.562,2.14
		c-0.325,0.428-0.489,0.642-0.379,0.994c0.064,0.211,0.223,0.37,0.434,0.442c0.085,0.029,2.102,0.051,2.834,0.041
		C19.541,32.736,19.826,32.444,19.822,32.088L19.822,32.088z"/>
	<path fill="#233B73" d="M11.394,20.562v-5.145c0-0.357-0.289-0.646-0.646-0.646h-1.1c-0.356,0-0.646,0.289-0.646,0.646
		c0,0.356,0.29,0.646,0.646,0.646h0.454v4.499c0,0.357,0.289,0.646,0.646,0.646C11.105,21.208,11.394,20.918,11.394,20.562
		L11.394,20.562z"/>
	<path fill="#233B73" d="M24.917,44.639c1.082,0,1.962-0.882,1.962-1.962c0-0.509-0.192-0.97-0.508-1.318
		c0.315-0.347,0.508-0.81,0.508-1.316c0-1.082-0.88-1.962-1.962-1.962c-0.936,0-1.746,0.666-1.926,1.583
		c-0.069,0.35,0.16,0.688,0.509,0.759c0.351,0.068,0.69-0.159,0.758-0.51c0.063-0.313,0.339-0.539,0.658-0.539
		c0.37,0,0.67,0.3,0.67,0.669c0,0.37-0.301,0.67-0.67,0.67c-0.356,0-0.646,0.29-0.646,0.646s0.289,0.646,0.646,0.646
		c0.37,0,0.67,0.302,0.67,0.672c0,0.367-0.301,0.669-0.67,0.669c-0.332,0-0.618-0.247-0.664-0.576
		c-0.004-0.031-0.007-0.062-0.007-0.093c0-0.358-0.289-0.646-0.646-0.646c-0.486-0.006-0.733,0.484-0.626,0.919
		C23.108,43.912,23.943,44.639,24.917,44.639L24.917,44.639z"/>
</g>
</svg>
