<svg id="Capa_1" enable-background="new 0 0 512 512" height="512" viewBox="0 0 512 512" width="512" xmlns="http://www.w3.org/2000/svg"><g><path d="m365.351 283.701h-72.813c-4.1 0-7.422 3.323-7.422 7.422s3.323 7.422 7.422 7.422h72.813c4.1 0 7.422-3.323 7.422-7.422s-3.323-7.422-7.422-7.422z"/><path d="m317.027 316.29h-24.489c-4.1 0-7.422 3.323-7.422 7.422s3.323 7.422 7.422 7.422h24.489c4.1 0 7.422-3.323 7.422-7.422s-3.322-7.422-7.422-7.422z"/><path d="m469.221 387.111h-32.085v-201.751c0-4.099-3.323-7.422-7.422-7.422-4.1 0-7.422 3.323-7.422 7.422v201.752h-27.997v-27.161c9.785-3.091 16.9-12.253 16.9-23.047v-59.08c0-10.794-7.115-19.956-16.9-23.047v-207.2h14.637c7.367 0 13.36 5.993 13.36 13.36v89.635c0 4.099 3.323 7.422 7.422 7.422 4.1 0 7.422-3.323 7.422-7.422v-89.634c0-15.552-12.653-28.205-28.205-28.205h-65.695c-2.385-5.382-7.769-9.15-14.024-9.15h-42.189c-3.876-13.715-16.565-23.583-31.169-23.583-14.769 0-27.32 9.916-31.165 23.583h-42.193c-6.255 0-11.639 3.768-14.024 9.15h-65.695c-15.552 0-28.205 12.653-28.205 28.205v45.326c-31.778 5.771-55.957 33.629-55.957 67.046s24.179 61.275 55.957 67.046v205.029c0 15.552 12.653 28.205 28.205 28.205h85.709c3.578 7.377 8.472 14.128 14.522 19.836 2.982 2.814 7.68 2.677 10.492-.306 2.813-2.982 2.676-7.679-.306-10.492-10.793-10.183-16.738-23.958-16.738-38.79 0-29.399 23.918-53.317 53.317-53.317 29.4 0 53.318 23.918 53.318 53.317s-23.918 53.317-53.318 53.317c-3.252 0-6.507-.294-9.675-.874-4.028-.737-7.899 1.932-8.638 5.964-.738 4.032 1.932 7.899 5.964 8.638 4.048.741 8.202 1.117 12.348 1.117 26.923 0 50.246-15.693 61.314-38.409h18.019c1.587 11.799 11.715 20.929 23.941 20.929h116.173c13.324 0 24.163-10.84 24.163-24.164v-59.08c.003-13.325-10.837-24.165-24.161-24.165zm-72.871-50.207c0 5.139-4.18 9.319-9.319 9.319h-116.173c-5.139 0-9.319-4.18-9.319-9.319v-59.08c0-5.139 4.18-9.319 9.319-9.319h116.174c5.139 0 9.319 4.18 9.319 9.319v59.08zm-140.496-322.059c6.388 0 12.087 3.49 15.154 8.738h-30.326c3.044-5.239 8.715-8.738 15.172-8.738zm-73.852 24.078c0-.273.222-.495.495-.495h146.715c.273 0 .495.222.495.495v19.607c0 .273-.222.495-.495.495h-146.715c-.273 0-.495-.222-.495-.495zm22.426 34.946h102.852v1.679c0 8.275-6.499 15.048-14.489 15.099-2.397.03-4.64-.521-6.731-1.594-7.517-3.857-16.256-3.896-23.371-.104-2.115 1.127-4.415 1.698-6.835 1.698s-4.72-.571-6.834-1.698c-7.118-3.792-15.856-3.753-23.371.104-2.092 1.073-4.39 1.611-6.733 1.594-7.989-.051-14.488-6.824-14.488-15.098zm-170.968 99.441c0-29.399 23.918-53.317 53.317-53.317s53.317 23.918 53.317 53.317-23.918 53.317-53.317 53.317-53.317-23.918-53.317-53.317zm80.807 135.098c0-29.399 23.918-53.317 53.317-53.317s53.317 23.918 53.317 53.317-23.918 53.317-53.317 53.317-53.317-23.918-53.317-53.317zm-11.489 150.338c-7.367 0-13.36-5.993-13.36-13.36v-203.98c10.037-.385 19.52-2.95 27.997-7.235v28.154c-11.162 12.143-17.992 28.328-17.992 46.083s6.829 33.94 17.992 46.083v38.732c0 6.821 5.549 12.371 12.371 12.371h63.599c-7.425 10.913-11.771 24.08-11.771 38.245 0 5.046.587 10.043 1.685 14.908h-80.521zm104.315-67.997h-74.834v-24.066c10.308 6.272 22.403 9.887 35.326 9.887 37.585 0 68.162-30.577 68.162-68.162s-30.577-68.162-68.162-68.162c-12.923 0-25.018 3.615-35.326 9.887v-26.106c13.911-12.488 22.681-30.594 22.681-50.716 0-36.7-29.158-66.701-65.522-68.095v-44.278c0-7.367 5.993-13.36 13.36-13.36h14.636v38.415c0 4.099 3.323 7.422 7.422 7.422s7.422-3.323 7.422-7.422v-38.415h34.898v10.952c0 8.458 6.881 15.34 15.34 15.34h7.087v1.679c0 16.407 13.116 29.84 29.238 29.943 4.732.036 9.427-1.087 13.605-3.231 3.192-1.639 6.786-1.717 9.614-.21 4.226 2.251 9.003 3.442 13.815 3.442s9.589-1.19 13.814-3.442c2.829-1.506 6.423-1.427 9.614.211 4.18 2.144 8.895 3.269 13.604 3.23 16.122-.103 29.238-13.536 29.238-29.944v-1.679h7.087c8.458 0 15.34-6.881 15.34-15.34v-10.951h34.898v206.082h-108.592c-13.324 0-24.163 10.84-24.163 24.164v59.08c0 13.324 10.84 24.164 24.163 24.164h108.592v26.044h-26.401c-4.669 0-9.03 1.335-12.73 3.637h-47.862c-11.691-9.418-26.535-15.073-42.682-15.073s-30.991 5.655-42.682 15.073zm99.073 14.844h23.399c-.441 1.823-.681 3.725-.681 5.682v47.471h-12.609c1.076-4.802 1.662-9.786 1.662-14.908 0-14.165-4.346-27.332-11.771-38.245zm172.374 64.762c0 5.139-4.18 9.319-9.319 9.319h-116.172c-5.139 0-9.32-4.18-9.32-9.319v-59.08c0-5.139 4.181-9.319 9.32-9.319h116.173c5.139 0 9.319 4.18 9.319 9.319v59.08z"/><path d="m447.541 417.153h-72.812c-4.1 0-7.422 3.323-7.422 7.422s3.323 7.422 7.422 7.422h72.812c4.1 0 7.422-3.323 7.422-7.422s-3.322-7.422-7.422-7.422z"/><path d="m430.775 449.741h-56.046c-4.1 0-7.422 3.323-7.422 7.422s3.323 7.422 7.422 7.422h56.046c4.1 0 7.422-3.323 7.422-7.422s-3.322-7.422-7.422-7.422z"/><path d="m330.387 202.851v-59.08c0-13.324-10.84-24.164-24.164-24.164h-116.173c-13.324 0-24.163 10.84-24.163 24.164v59.08c0 13.324 10.84 24.164 24.163 24.164h116.173c13.325-.001 24.164-10.84 24.164-24.164zm-149.655 0v-59.08c0-5.139 4.18-9.319 9.319-9.319h116.173c5.139 0 9.32 4.18 9.32 9.319v59.08c0 5.139-4.181 9.319-9.32 9.319h-116.174c-5.138 0-9.318-4.181-9.318-9.319z"/><path d="m284.543 149.648h-72.812c-4.099 0-7.422 3.323-7.422 7.422s3.323 7.422 7.422 7.422h72.812c4.1 0 7.422-3.323 7.422-7.422s-3.323-7.422-7.422-7.422z"/><path d="m284.543 182.236h-72.812c-4.099 0-7.422 3.323-7.422 7.422s3.323 7.422 7.422 7.422h72.812c4.1 0 7.422-3.323 7.422-7.422s-3.323-7.422-7.422-7.422z"/><path d="m190.785 338.258c-.051-4.099-3.403-7.364-7.515-7.329-5.427.068-11.164.115-16.103.13 3.211-4.315 7.526-10.24 13.195-18.34 3.832-5.474 6.332-10.66 7.434-15.413.057-.242.101-.488.132-.734l.292-2.287c.04-.312.06-.627.06-.941 0-12.433-10.115-22.548-22.548-22.548-10.75 0-20.055 7.648-22.125 18.186-.79 4.022 1.83 7.923 5.853 8.714 4.023.79 7.923-1.83 8.714-5.853.706-3.593 3.885-6.202 7.559-6.202 4.115 0 7.487 3.244 7.693 7.309l-.17 1.33c-.717 2.795-2.459 6.218-5.055 9.928-9.355 13.367-14.937 20.675-17.935 24.601-3.741 4.898-5.618 7.357-4.366 11.426.741 2.408 2.562 4.254 4.994 5.064.984.329 24.139.579 32.564.474 4.097-.052 7.378-3.416 7.327-7.515z"/><path d="m93.96 205.835v-59.112c0-4.099-3.323-7.422-7.422-7.422h-12.636c-4.099 0-7.422 3.323-7.422 7.422s3.323 7.422 7.422 7.422h5.213v51.689c0 4.099 3.323 7.422 7.422 7.422 4.1.002 7.423-3.321 7.423-7.421z"/><path d="m249.317 482.447c12.433 0 22.548-10.115 22.548-22.548 0-5.815-2.213-11.122-5.841-15.125 3.628-4.003 5.841-9.311 5.841-15.125 0-12.433-10.115-22.548-22.548-22.548-10.75 0-20.055 7.648-22.125 18.185-.79 4.022 1.83 7.923 5.852 8.714 4.022.786 7.924-1.83 8.714-5.852.706-3.594 3.885-6.202 7.559-6.202 4.248 0 7.703 3.456 7.703 7.703s-3.456 7.703-7.703 7.703c-4.099 0-7.422 3.323-7.422 7.422s3.323 7.422 7.422 7.422c4.248 0 7.703 3.456 7.703 7.703 0 4.248-3.456 7.703-7.703 7.703-3.822 0-7.102-2.846-7.628-6.618-.05-.356-.075-.721-.075-1.085 0-4.099-3.323-7.422-7.422-7.422-5.585-.06-8.423 5.58-7.205 10.558 1.543 11.067 11.143 19.412 22.33 19.412z"/></g></svg>